<svg width="46" height="34" viewBox="0 0 46 34" fill="none" xmlns="http://www.w3.org/2000/svg">
<path opacity="0.2" d="M9 15C9 11.287 10.475 7.72601 13.1005 5.10051C15.726 2.475 19.287 1 23 1C26.713 1 30.274 2.47499 32.8995 5.1005C35.525 7.72601 37 11.287 37 15" stroke="#33B881" stroke-width="2" stroke-linecap="round" stroke-linejoin="round"/>
<path opacity="0.2" d="M9 15C9 12.2311 9.82109 9.5243 11.3594 7.22201C12.8978 4.91973 15.0843 3.12531 17.6424 2.06569C20.2006 1.00606 23.0155 0.728813 25.7313 1.26901C28.447 1.8092 30.9416 3.14257 32.8995 5.10051L23 15L9 15Z" fill="url(#paint0_radial)"/>
<path d="M9 15C9 12.2311 9.82109 9.5243 11.3594 7.22202C12.8978 4.91973 15.0843 3.12531 17.6424 2.06569C20.2006 1.00606 23.0155 0.728813 25.7313 1.26901C28.447 1.8092 30.9416 3.14257 32.8995 5.10051" stroke="#33B881" stroke-width="2" stroke-linecap="round" stroke-linejoin="round"/>
<path d="M21.9394 13.9394C21.3536 14.5252 21.3536 15.4749 21.9394 16.0607C22.5252 16.6465 23.4749 16.6465 24.0607 16.0607C25.1214 15 28.3034 9.69673 28.3034 9.69673C28.3034 9.69673 23.0001 12.8787 21.9394 13.9394Z" fill="#010101"/>
<path d="M2.55762 28.0371H1.28467V29.5518H2.42871C3.11621 29.5518 3.45996 29.2975 3.45996 28.7891C3.45996 28.5527 3.38298 28.3683 3.229 28.2358C3.07861 28.1034 2.85482 28.0371 2.55762 28.0371ZM2.50928 30.4004H1.28467V32.1138H2.6543C2.99447 32.1138 3.25407 32.0404 3.43311 31.8936C3.61214 31.7467 3.70166 31.5355 3.70166 31.2598C3.70166 30.6868 3.3042 30.4004 2.50928 30.4004ZM0.140625 33V27.1509H2.77783C3.34717 27.1509 3.79118 27.2852 4.10986 27.5537C4.43213 27.8187 4.59326 28.1803 4.59326 28.6387C4.59326 28.9359 4.49837 29.2026 4.30859 29.439C4.1224 29.6753 3.88786 29.8203 3.60498 29.874V29.9653C3.98096 30.0083 4.28353 30.1551 4.5127 30.4058C4.74186 30.6528 4.85645 30.9554 4.85645 31.3135C4.85645 31.8291 4.67383 32.2391 4.30859 32.5435C3.94336 32.8478 3.44206 33 2.80469 33H0.140625ZM11.6724 33V27.1509H12.8271V33H11.6724ZM8.60547 29.9116H7.53662V32.0278H8.60547C8.95638 32.0278 9.23568 31.9312 9.44336 31.7378C9.65462 31.5444 9.76025 31.2884 9.76025 30.9697C9.76025 30.651 9.65462 30.395 9.44336 30.2017C9.2321 30.0083 8.9528 29.9116 8.60547 29.9116ZM6.38184 33V27.1509H7.53662V28.9448H8.69141C9.36816 28.9448 9.90706 29.1274 10.3081 29.4927C10.7091 29.8579 10.9097 30.3503 10.9097 30.9697C10.9097 31.5892 10.7091 32.0833 10.3081 32.4521C9.90706 32.8174 9.36816 33 8.69141 33H6.38184ZM19.5571 29.063H18.4346C18.363 28.7658 18.2072 28.5259 17.9673 28.3433C17.731 28.1606 17.4266 28.0693 17.0542 28.0693C16.5708 28.0693 16.1895 28.2448 15.9102 28.5957C15.6344 28.9466 15.4966 29.4336 15.4966 30.0566C15.4966 30.6868 15.6344 31.1828 15.9102 31.5444C16.1895 31.9025 16.5708 32.0815 17.0542 32.0815C17.423 32.0815 17.7256 31.9992 17.9619 31.8345C18.2018 31.6698 18.3594 31.4316 18.4346 31.1201H19.5571C19.4819 31.7217 19.2241 32.2051 18.7837 32.5703C18.3433 32.932 17.7686 33.1128 17.0596 33.1128C16.2074 33.1128 15.536 32.8424 15.0454 32.3018C14.5584 31.7575 14.3149 31.0091 14.3149 30.0566C14.3149 29.1185 14.5584 28.3809 15.0454 27.8438C15.5324 27.3066 16.202 27.0381 17.0542 27.0381C17.7668 27.0381 18.3415 27.2243 18.7783 27.5967C19.2188 27.9691 19.4784 28.4578 19.5571 29.063ZM23.4565 33.1128C22.5972 33.1128 21.9222 32.8424 21.4316 32.3018C20.9411 31.7611 20.6958 31.0181 20.6958 30.0728C20.6958 29.131 20.9411 28.3898 21.4316 27.8491C21.9258 27.3084 22.6007 27.0381 23.4565 27.0381C24.3088 27.0381 24.9801 27.3084 25.4707 27.8491C25.9648 28.3898 26.2119 29.131 26.2119 30.0728C26.2119 31.0181 25.9666 31.7611 25.4761 32.3018C24.9855 32.8424 24.3123 33.1128 23.4565 33.1128ZM23.4565 32.0869C23.9543 32.0869 24.3392 31.9115 24.6113 31.5605C24.887 31.2061 25.0249 30.7101 25.0249 30.0728C25.0249 29.439 24.887 28.9466 24.6113 28.5957C24.3392 28.2412 23.9543 28.064 23.4565 28.064C22.9552 28.064 22.5685 28.2394 22.2964 28.5903C22.0243 28.9412 21.8882 29.4354 21.8882 30.0728C21.8882 30.7137 22.0243 31.2096 22.2964 31.5605C22.5685 31.9115 22.9552 32.0869 23.4565 32.0869ZM29.123 30.4434H28.8599V33H27.7051V27.1509H28.8599V29.5249H29.1177L31.2285 27.1509H32.5874L30.0684 29.8687L32.6948 33H31.2554L29.123 30.4434ZM35.0688 33H33.9248V27.1509H35.0688V31.1738H35.1602L37.8564 27.1509H39.0005V33H37.8564V28.9556H37.7705L35.0688 33ZM41.9224 33H40.7783V27.1509H41.9224V31.1738H42.0137L44.71 27.1509H45.854V33H44.71V28.9556H44.624L41.9224 33ZM41.3638 24.5029H42.3252C42.3252 24.8001 42.4129 25.0526 42.5884 25.2603C42.7638 25.4679 42.993 25.5718 43.2759 25.5718C43.5659 25.5718 43.7969 25.4679 43.9688 25.2603C44.1442 25.0526 44.2337 24.8001 44.2373 24.5029H45.1934C45.1934 25.0293 45.0161 25.4644 44.6616 25.8081C44.3071 26.1483 43.8452 26.3184 43.2759 26.3184C42.7065 26.3184 42.2446 26.1483 41.8901 25.8081C41.5392 25.4644 41.3638 25.0293 41.3638 24.5029Z" fill="#33B881"/>
<defs>
<radialGradient id="paint0_radial" cx="0" cy="0" r="1" gradientUnits="userSpaceOnUse" gradientTransform="translate(23 15) rotate(-90) scale(14)">
<stop stop-color="#33B881" stop-opacity="0"/>
<stop offset="1" stop-color="#33B881"/>
</radialGradient>
</defs>
</svg>
