<svg width="32" height="32" viewBox="0 0 32 32" fill="none" xmlns="http://www.w3.org/2000/svg">
<path opacity="0.2" d="M2 15C2 11.287 3.475 7.72601 6.1005 5.10051C8.72601 2.475 12.287 1 16 1C19.713 1 23.274 2.47499 25.8995 5.1005C28.525 7.72601 30 11.287 30 15" stroke="#99A2AD" stroke-width="2" stroke-linecap="round" stroke-linejoin="round"/>
<path opacity="0.2" d="M2 15C2 13.1615 2.36212 11.341 3.06569 9.64243C3.76925 7.94387 4.80049 6.40052 6.10051 5.1005L16 15L2 15Z" fill="url(#paint0_radial)"/>
<path d="M2 15C2 13.1615 2.36212 11.341 3.06569 9.64243C3.76925 7.94387 4.80049 6.40052 6.10051 5.1005" stroke="#99A2AD" stroke-width="2" stroke-linecap="round" stroke-linejoin="round"/>
<path d="M14.9393 16.0607C15.5251 16.6465 16.4748 16.6465 17.0606 16.0607C17.6464 15.4749 17.6464 14.5251 17.0606 13.9393C16 12.8787 10.6967 9.69671 10.6967 9.69671C10.6967 9.69671 13.8786 15 14.9393 16.0607Z" fill="#99A2AD"/>
<defs>
<radialGradient id="paint0_radial" cx="0" cy="0" r="1" gradientUnits="userSpaceOnUse" gradientTransform="translate(16 15) rotate(-90) scale(14)">
<stop stop-color="#99A2AD" stop-opacity="0"/>
<stop offset="1" stop-color="#99A2AD"/>
</radialGradient>
</defs>
</svg>
