<svg width="38" height="34" viewBox="0 0 38 34" fill="none" xmlns="http://www.w3.org/2000/svg">
<path opacity="0.2" d="M5 15C5 11.287 6.475 7.72601 9.1005 5.10051C11.726 2.475 15.287 1 19 1C22.713 1 26.274 2.47499 28.8995 5.1005C31.525 7.72601 33 11.287 33 15" stroke="#FF4C58" stroke-width="2" stroke-linecap="round" stroke-linejoin="round"/>
<path opacity="0.2" d="M5 15C5 13.1615 5.36212 11.341 6.06569 9.64243C6.76925 7.94387 7.80049 6.40052 9.10051 5.1005L19 15L5 15Z" fill="url(#paint0_radial)"/>
<path d="M5 15C5 13.1615 5.36212 11.341 6.06569 9.64243C6.76925 7.94387 7.80049 6.40052 9.10051 5.1005" stroke="#FF4C58" stroke-width="2" stroke-linecap="round" stroke-linejoin="round"/>
<path d="M17.9393 16.0607C18.5251 16.6465 19.4748 16.6465 20.0606 16.0607C20.6464 15.4749 20.6464 14.5251 20.0606 13.9393C19 12.8787 13.6967 9.69671 13.6967 9.69671C13.6967 9.69671 16.8786 15 17.9393 16.0607Z" fill="#010101"/>
<path d="M3.96094 33V30.4648H1.26465V33H0.109863V27.1509H1.26465V29.4927H3.96094V27.1509H5.11035V33H3.96094ZM8.03223 33H6.88818V27.1509H8.03223V31.1738H8.12354L10.8198 27.1509H11.9639V33H10.8198V28.9556H10.7339L8.03223 33ZM15.8418 33.1074C15.4085 33.1074 15.0182 33.0448 14.6709 32.9194C14.3236 32.7905 14.0371 32.5918 13.8115 32.3232C13.5859 32.0511 13.4552 31.7235 13.4194 31.3403H14.5688C14.6261 31.5946 14.7658 31.7897 14.9878 31.9258C15.2134 32.0583 15.498 32.1245 15.8418 32.1245C16.2249 32.1245 16.5275 32.0475 16.7495 31.8936C16.9715 31.736 17.0825 31.5247 17.0825 31.2598C17.0825 30.7048 16.6689 30.4272 15.8418 30.4272H14.9663V29.5303H15.8257C16.173 29.5303 16.4344 29.4658 16.6099 29.3369C16.7889 29.208 16.8784 29.02 16.8784 28.7729C16.8784 28.5474 16.7871 28.3647 16.6045 28.2251C16.4255 28.0854 16.1659 28.0156 15.8257 28.0156C15.4998 28.0156 15.2277 28.0819 15.0093 28.2144C14.7944 28.3433 14.6691 28.5223 14.6333 28.7515H13.5215C13.5824 28.2251 13.8169 27.8079 14.2251 27.5C14.6369 27.1921 15.1704 27.0381 15.8257 27.0381C16.5132 27.0381 17.0485 27.1831 17.4316 27.4731C17.8184 27.7632 18.0117 28.1571 18.0117 28.6548C18.0117 28.9484 17.9258 29.2044 17.7539 29.4229C17.5856 29.6413 17.3636 29.7845 17.0879 29.8525V29.9438C17.4603 30.0298 17.7432 30.1891 17.9365 30.4219C18.1335 30.651 18.2319 30.9303 18.2319 31.2598C18.2319 31.8148 18.0135 32.2624 17.5767 32.6025C17.1434 32.9391 16.5651 33.1074 15.8418 33.1074ZM21.1538 30.4434H20.8906V33H19.7358V27.1509H20.8906V29.5249H21.1484L23.2593 27.1509H24.6182L22.0991 29.8687L24.7256 33H23.2861L21.1538 30.4434ZM27.0996 33H25.9556V27.1509H27.0996V31.1738H27.1909L29.8872 27.1509H31.0312V33H29.8872V28.9556H29.8013L27.0996 33ZM33.9531 33H32.8091V27.1509H33.9531V31.1738H34.0444L36.7407 27.1509H37.8848V33H36.7407V28.9556H36.6548L33.9531 33ZM33.3945 24.5029H34.356C34.356 24.8001 34.4437 25.0526 34.6191 25.2603C34.7946 25.4679 35.0238 25.5718 35.3066 25.5718C35.5967 25.5718 35.8276 25.4679 35.9995 25.2603C36.175 25.0526 36.2645 24.8001 36.2681 24.5029H37.2241C37.2241 25.0293 37.0469 25.4644 36.6924 25.8081C36.3379 26.1483 35.876 26.3184 35.3066 26.3184C34.7373 26.3184 34.2754 26.1483 33.9209 25.8081C33.57 25.4644 33.3945 25.0293 33.3945 24.5029Z" fill="#FF4C58"/>
<defs>
<radialGradient id="paint0_radial" cx="0" cy="0" r="1" gradientUnits="userSpaceOnUse" gradientTransform="translate(19 15) rotate(-90) scale(14)">
<stop stop-color="#FF4C58" stop-opacity="0"/>
<stop offset="1" stop-color="#FF4C58"/>
</radialGradient>
</defs>
</svg>
