<svg width="47" height="35" viewBox="0 0 47 35" fill="none" xmlns="http://www.w3.org/2000/svg">
<path opacity="0.2" d="M10 15C10 11.287 11.475 7.72601 14.1005 5.10051C16.726 2.475 20.287 1 24 1C27.713 1 31.274 2.47499 33.8995 5.1005C36.525 7.72601 38 11.287 38 15" stroke="#FFB800" stroke-width="2" stroke-linecap="round" stroke-linejoin="round"/>
<path opacity="0.2" d="M10 15C10 11.287 11.475 7.72601 14.1005 5.1005C16.726 2.475 20.287 1 24 1V15L10 15Z" fill="url(#paint0_radial)"/>
<path d="M10 15C10 11.287 11.475 7.72601 14.1005 5.1005C16.726 2.475 20.287 1 24 1" stroke="#FFB800" stroke-width="2" stroke-linecap="round" stroke-linejoin="round"/>
<path d="M22.5 15C22.5 15.8284 23.1716 16.5 24 16.5C24.8284 16.5 25.5 15.8284 25.5 15C25.5 13.5 24 7.5 24 7.5C24 7.5 22.5 13.5 22.5 15Z" fill="#010101"/>
<path d="M6.21631 29.063H5.09375C5.02214 28.7658 4.86637 28.5259 4.62646 28.3433C4.39014 28.1606 4.08577 28.0693 3.71338 28.0693C3.22998 28.0693 2.84863 28.2448 2.56934 28.5957C2.29362 28.9466 2.15576 29.4336 2.15576 30.0566C2.15576 30.6868 2.29362 31.1828 2.56934 31.5444C2.84863 31.9025 3.22998 32.0815 3.71338 32.0815C4.08219 32.0815 4.38477 31.9992 4.62109 31.8345C4.861 31.6698 5.01855 31.4316 5.09375 31.1201H6.21631C6.14111 31.7217 5.8833 32.2051 5.44287 32.5703C5.00244 32.932 4.42773 33.1128 3.71875 33.1128C2.86654 33.1128 2.19515 32.8424 1.70459 32.3018C1.21761 31.7575 0.974121 31.0091 0.974121 30.0566C0.974121 29.1185 1.21761 28.3809 1.70459 27.8438C2.19157 27.3066 2.86117 27.0381 3.71338 27.0381C4.42594 27.0381 5.00065 27.2243 5.4375 27.5967C5.87793 27.9691 6.13753 28.4578 6.21631 29.063ZM10.6743 27.0542C11.4191 27.0542 12.0099 27.3263 12.4468 27.8706C12.8836 28.4113 13.1021 29.1453 13.1021 30.0728C13.1021 31.0002 12.8836 31.736 12.4468 32.2803C12.0135 32.8245 11.4263 33.0967 10.6851 33.0967C10.2697 33.0967 9.90446 33.0107 9.58936 32.8389C9.27425 32.6634 9.03971 32.4217 8.88574 32.1138H8.79443V34.9443H7.63965V27.1509H8.75146V28.1177H8.8374C9.01286 27.7847 9.26351 27.5251 9.58936 27.3389C9.9152 27.1491 10.2769 27.0542 10.6743 27.0542ZM10.3467 32.0601C10.8372 32.0601 11.2204 31.8846 11.4961 31.5337C11.7754 31.1792 11.915 30.6922 11.915 30.0728C11.915 29.4533 11.7754 28.9681 11.4961 28.6172C11.2204 28.2663 10.839 28.0908 10.3521 28.0908C9.86507 28.0908 9.48014 28.2699 9.19727 28.6279C8.91439 28.9824 8.77295 29.4658 8.77295 30.0781C8.77295 30.6868 8.91439 31.1702 9.19727 31.5283C9.48014 31.8828 9.86328 32.0601 10.3467 32.0601ZM18.0327 28.4346C17.7749 28.1589 17.4329 28.021 17.0068 28.021C16.5807 28.021 16.2298 28.1589 15.9541 28.4346C15.6784 28.7103 15.5244 29.0773 15.4922 29.5356H18.4463C18.432 29.0737 18.2941 28.7067 18.0327 28.4346ZM18.4409 31.4209H19.5527C19.4202 31.9473 19.1302 32.3608 18.6826 32.6616C18.2386 32.9624 17.6836 33.1128 17.0176 33.1128C16.1797 33.1128 15.519 32.8442 15.0356 32.3071C14.5558 31.7664 14.3159 31.0288 14.3159 30.0942C14.3159 29.1597 14.5594 28.4167 15.0464 27.8652C15.5334 27.3138 16.1886 27.0381 17.0122 27.0381C17.825 27.0381 18.4624 27.2995 18.9243 27.8223C19.3898 28.3451 19.6226 29.0666 19.6226 29.9868V30.3896H15.4922V30.4541C15.5101 30.9697 15.6587 31.3779 15.938 31.6787C16.2173 31.9795 16.5879 32.1299 17.0498 32.1299C17.7552 32.1299 18.2189 31.8936 18.4409 31.4209ZM24.7949 32.0278V28.123H22.7378L22.5767 30.3252C22.5158 31.0592 22.3636 31.5964 22.1201 31.9365V32.0278H24.7949ZM21.4434 34.5308H20.3691V32.0278H20.8418C21.2285 31.7915 21.4541 31.2043 21.5186 30.2661L21.7334 27.1509H25.9443V32.0278H26.8574V34.5308H25.7886V33H21.4434V34.5308ZM31.8794 33V30.4648H29.1831V33H28.0283V27.1509H29.1831V29.4927H31.8794V27.1509H33.0288V33H31.8794ZM35.9507 33H34.8066V27.1509H35.9507V31.1738H36.042L38.7383 27.1509H39.8823V33H38.7383V28.9556H38.6523L35.9507 33ZM42.8042 33H41.6602V27.1509H42.8042V31.1738H42.8955L45.5918 27.1509H46.7358V33H45.5918V28.9556H45.5059L42.8042 33ZM42.2456 24.5029H43.207C43.207 24.8001 43.2948 25.0526 43.4702 25.2603C43.6457 25.4679 43.8748 25.5718 44.1577 25.5718C44.4478 25.5718 44.6787 25.4679 44.8506 25.2603C45.026 25.0526 45.1156 24.8001 45.1191 24.5029H46.0752C46.0752 25.0293 45.8979 25.4644 45.5435 25.8081C45.189 26.1483 44.7271 26.3184 44.1577 26.3184C43.5884 26.3184 43.1265 26.1483 42.772 25.8081C42.4211 25.4644 42.2456 25.0293 42.2456 24.5029Z" fill="#FFB800"/>
<defs>
<radialGradient id="paint0_radial" cx="0" cy="0" r="1" gradientUnits="userSpaceOnUse" gradientTransform="translate(24 15) rotate(-90) scale(14)">
<stop stop-color="#FFB800" stop-opacity="0"/>
<stop offset="1" stop-color="#FFB800"/>
</radialGradient>
</defs>
</svg>
